<svg width="159" height="183" fill="none" xmlns="http://www.w3.org/2000/svg"><path d="M154.028 179.211H5.03V23.149c.008-5.1 2.143-9.99 5.936-13.597 3.793-3.607 8.935-5.637 14.3-5.645h.436c5.364.008 10.506 2.038 14.3 5.645 3.793 3.607 5.927 8.496 5.935 13.597v14.594h67.245V23.149c.009-5.1 2.143-9.99 5.936-13.597 3.794-3.607 8.936-5.637 14.3-5.645h.436c5.364.008 10.507 2.038 14.3 5.645 3.793 3.607 5.928 8.496 5.936 13.597V179.18l-.062.03ZM133.792.03h-.436c-6.449.007-12.632 2.445-17.195 6.778-4.563 4.333-7.134 10.209-7.15 16.34v10.687h-59.15V23.15c0-6.14-2.566-12.028-7.131-16.369C38.163 2.44 31.972 0 25.515 0h-.436C18.646.04 12.491 2.494 7.954 6.83 3.417 11.167.866 17.032.858 23.15V183h157.279V23.149c0-6.14-2.565-12.028-7.131-16.369C146.441 2.44 140.249 0 133.792 0v.03Z" fill="#fff"/><path d="M14.743 153.398h31.568v13.291H14.743v-13.291Zm-4.11 17.199H50.42v-21.136H10.634v21.136ZM113.12 153.398h31.568v13.291H113.12v-13.291Zm-4.109 17.199h39.786v-21.136h-39.786v21.136ZM32.24 37.95H18.51V21.876c.118-1.655.892-3.206 2.166-4.34a7.078 7.078 0 0 1 4.699-1.762c1.745 0 3.424.63 4.699 1.763 1.274 1.133 2.048 2.684 2.166 4.339V37.95Zm4.109-16.074c-.347-2.515-1.644-4.823-3.648-6.496-2.005-1.672-4.581-2.594-7.248-2.594s-5.243.922-7.248 2.594c-2.005 1.673-3.301 3.981-3.648 6.496v19.981h21.792V21.876ZM140.361 37.95h-13.729V21.876c.117-1.655.891-3.206 2.165-4.34a7.08 7.08 0 0 1 4.699-1.762 7.08 7.08 0 0 1 4.699 1.763c1.274 1.133 2.048 2.684 2.166 4.339V37.95Zm4.109-16.074c-.347-2.515-1.644-4.823-3.648-6.496-2.005-1.672-4.581-2.594-7.248-2.594s-5.243.922-7.248 2.594c-2.005 1.673-3.301 3.981-3.648 6.496v19.981h21.792V21.876ZM32.24 84.87H18.51V68.794c.118-1.655.892-3.206 2.166-4.339a7.078 7.078 0 0 1 4.699-1.763c1.745 0 3.424.63 4.699 1.763 1.274 1.133 2.048 2.684 2.166 4.34v16.073Zm4.109-16.075c-.347-2.514-1.644-4.823-3.648-6.495-2.005-1.672-4.581-2.595-7.248-2.595s-5.243.922-7.248 2.595c-2.005 1.672-3.301 3.981-3.648 6.495v19.982h21.792V68.795ZM68.29 84.869H54.53V68.795c0-1.735.725-3.4 2.015-4.626 1.29-1.227 3.04-1.916 4.865-1.916 1.825 0 3.575.69 4.865 1.916 1.29 1.227 2.015 2.89 2.015 4.626v16.074Zm4.11-16.074c0-2.771-1.158-5.43-3.22-7.389-2.06-1.96-4.855-3.06-7.77-3.06-2.915 0-5.71 1.1-7.77 3.06-2.062 1.96-3.22 4.618-3.22 7.389v19.981H72.4V68.795ZM104.341 84.869h-13.76V68.795c0-1.735.724-3.4 2.015-4.626 1.29-1.227 3.04-1.916 4.865-1.916 1.825 0 3.574.69 4.865 1.916 1.29 1.227 2.015 2.89 2.015 4.626v16.074Zm4.109-16.074c0-2.771-1.157-5.43-3.218-7.389-2.061-1.96-4.857-3.06-7.771-3.06-2.915 0-5.71 1.1-7.771 3.06s-3.219 4.618-3.219 7.389v19.981h21.979V68.795ZM140.361 84.87h-13.729V68.794c.117-1.655.891-3.206 2.165-4.339a7.08 7.08 0 0 1 4.699-1.763 7.08 7.08 0 0 1 4.699 1.763c1.274 1.133 2.048 2.684 2.166 4.34v16.073Zm4.109-16.075c-.347-2.514-1.644-4.823-3.648-6.495-2.005-1.672-4.581-2.595-7.248-2.595s-5.243.922-7.248 2.595c-2.005 1.672-3.301 3.981-3.648 6.495v19.982h21.792V68.795ZM18.51 108.995c.117-1.655.892-3.206 2.166-4.339a7.078 7.078 0 0 1 4.699-1.763c1.744 0 3.424.63 4.698 1.763 1.275 1.133 2.05 2.684 2.166 4.339v16.044H18.51v-16.044Zm-4.14 19.892h21.792v-19.892c-.347-2.515-1.644-4.823-3.648-6.496-2.005-1.672-4.581-2.594-7.248-2.594s-5.243.922-7.248 2.594c-2.005 1.673-3.301 3.981-3.648 6.496v19.952-.06ZM54.53 108.995c0-1.735.725-3.399 2.015-4.626 1.29-1.227 3.04-1.916 4.865-1.916 1.825 0 3.575.689 4.865 1.916 1.29 1.227 2.015 2.891 2.015 4.626v16.044H54.53v-16.044Zm-4.11 19.952H72.4v-19.952c0-2.771-1.158-5.429-3.22-7.389-2.06-1.96-4.855-3.06-7.77-3.06-2.915 0-5.71 1.1-7.77 3.06-2.062 1.96-3.22 4.618-3.22 7.389v19.952ZM90.58 108.995c0-1.735.725-3.399 2.016-4.626 1.29-1.227 3.04-1.916 4.865-1.916 1.825 0 3.574.689 4.865 1.916 1.29 1.227 2.015 2.891 2.015 4.626v16.044h-13.76v-16.044Zm-4.109 19.952h21.979v-19.952c0-2.771-1.157-5.429-3.218-7.389s-4.857-3.06-7.771-3.06c-2.915 0-5.71 1.1-7.771 3.06s-3.219 4.618-3.219 7.389v19.952ZM126.631 108.995c.118-1.655.892-3.206 2.166-4.339a7.079 7.079 0 0 1 4.699-1.763c1.745 0 3.424.63 4.699 1.763 1.274 1.133 2.048 2.684 2.166 4.339v16.044h-13.73v-16.044Zm-4.109 19.952h21.792v-19.952c-.347-2.515-1.643-4.823-3.648-6.496-2.005-1.672-4.581-2.594-7.248-2.594s-5.243.922-7.248 2.594c-2.004 1.673-3.301 3.981-3.648 6.496v19.952ZM60.227 175.304h4.11v-23.297h13.822v23.297h4.11v-23.297H96.09v23.297h4.109v-27.205H60.227v27.205ZM9.077 52.04h140.841v-3.907H9.078v3.907ZM104.932 22.468c.04-1.31.175-2.616.405-3.907H53.658a26.84 26.84 0 0 1 .405 3.907h50.869ZM9.077 143.215h140.841v-3.908H9.078v3.908Z" fill="#fff"/></svg>