<svg width="159" height="183" viewBox="0 0 159 183" fill="none" xmlns="http://www.w3.org/2000/svg">
<path d="M154.028 179.211H5.03007V23.1488C5.0383 18.0481 7.17293 13.1585 10.9661 9.55179C14.7592 5.94503 19.9015 3.91532 25.2658 3.90749H25.7017C31.066 3.91532 36.2083 5.94503 40.0014 9.55179C43.7946 13.1585 45.9292 18.0481 45.9374 23.1488V37.7426H113.182V23.1488C113.191 18.0481 115.325 13.1585 119.118 9.55179C122.912 5.94503 128.054 3.91532 133.418 3.90749H133.854C139.218 3.91532 144.361 5.94503 148.154 9.55179C151.947 13.1585 154.082 18.0481 154.09 23.1488V179.181L154.028 179.211ZM133.792 0.029631H133.356C126.907 0.0374423 120.724 2.47479 116.161 6.80794C111.598 11.1411 109.027 17.0169 109.011 23.1488V33.8352H49.8601V23.1488C49.8601 17.0094 47.2951 11.1214 42.7295 6.78016C38.1639 2.43892 31.9716 0 25.5149 0H25.079C18.6464 0.039054 12.4908 2.49426 7.95389 6.83044C3.41694 11.1666 0.866483 17.0322 0.858398 23.1488V183H158.137V23.1488C158.137 17.0094 155.572 11.1214 151.006 6.78016C146.441 2.43892 140.249 0 133.792 0V0.029631Z" fill="white"/>
<path d="M14.7432 153.398H46.311V166.689H14.7432V153.398ZM10.6338 170.597H50.4204V149.461H10.6338V170.597Z" fill="white"/>
<path d="M113.12 153.398H144.688V166.689H113.12V153.398ZM109.011 170.597H148.797V149.461H109.011V170.597Z" fill="white"/>
<path d="M32.2396 37.9498H18.5104V21.8759C18.6277 20.2207 19.4019 18.6697 20.6764 17.5368C21.9508 16.4039 23.6303 15.7736 25.375 15.7736C27.1197 15.7736 28.7992 16.4039 30.0736 17.5368C31.3481 18.6697 32.1223 20.2207 32.2396 21.8759V37.9498ZM36.349 21.8759C36.002 19.3615 34.7053 17.0529 32.7006 15.3804C30.6958 13.708 28.1198 12.7858 25.4528 12.7858C22.7858 12.7858 20.2099 13.708 18.2051 15.3804C16.2003 17.0529 14.9036 19.3615 14.5566 21.8759V41.8573H36.349V21.8759Z" fill="white"/>
<path d="M140.361 37.9498H126.632V21.8759C126.749 20.2207 127.523 18.6697 128.797 17.5368C130.072 16.4039 131.751 15.7736 133.496 15.7736C135.241 15.7736 136.92 16.4039 138.195 17.5368C139.469 18.6697 140.243 20.2207 140.361 21.8759V37.9498ZM144.47 21.8759C144.123 19.3615 142.826 17.0529 140.822 15.3804C138.817 13.708 136.241 12.7858 133.574 12.7858C130.907 12.7858 128.331 13.708 126.326 15.3804C124.321 17.0529 123.025 19.3615 122.678 21.8759V41.8573H144.47V21.8759Z" fill="white"/>
<path d="M32.2396 84.8693H18.5104V68.7954C18.6277 67.1402 19.4019 65.5892 20.6764 64.4563C21.9508 63.3234 23.6303 62.6932 25.375 62.6932C27.1197 62.6932 28.7992 63.3234 30.0736 64.4563C31.3481 65.5892 32.1223 67.1402 32.2396 68.7954V84.8693ZM36.349 68.7954C36.002 66.281 34.7053 63.9724 32.7006 62.3C30.6958 60.6275 28.1198 59.7053 25.4528 59.7053C22.7858 59.7053 20.2099 60.6275 18.2051 62.3C16.2003 63.9724 14.9036 66.281 14.5566 68.7954V88.7768H36.349V68.7954Z" fill="white"/>
<path d="M68.2901 84.8689H54.5298V68.795C54.5298 67.0599 55.2547 65.3959 56.545 64.1691C57.8353 62.9422 59.5853 62.253 61.41 62.253C63.2347 62.253 64.9847 62.9422 66.275 64.1691C67.5653 65.3959 68.2901 67.0599 68.2901 68.795V84.8689ZM72.3996 68.795C72.3996 66.0236 71.2417 63.3657 69.1808 61.4061C67.1198 59.4464 64.3246 58.3455 61.41 58.3455C58.4954 58.3455 55.7001 59.4464 53.6392 61.4061C51.5782 63.3657 50.4204 66.0236 50.4204 68.795V88.7764H72.3996V68.795Z" fill="white"/>
<path d="M104.341 84.8689H90.5806V68.795C90.5806 67.0599 91.3055 65.3959 92.5958 64.1691C93.886 62.9422 95.636 62.253 97.4608 62.253C99.2855 62.253 101.035 62.9422 102.326 64.1691C103.616 65.3959 104.341 67.0599 104.341 68.795V84.8689ZM108.45 68.795C108.45 66.0236 107.293 63.3657 105.232 61.4061C103.171 59.4464 100.375 58.3455 97.4608 58.3455C94.5461 58.3455 91.7509 59.4464 89.69 61.4061C87.629 63.3657 86.4712 66.0236 86.4712 68.795V88.7764H108.45V68.795Z" fill="white"/>
<path d="M140.361 84.8693H126.632V68.7954C126.749 67.1402 127.523 65.5892 128.797 64.4563C130.072 63.3234 131.751 62.6932 133.496 62.6932C135.241 62.6932 136.92 63.3234 138.195 64.4563C139.469 65.5892 140.243 67.1402 140.361 68.7954V84.8693ZM144.47 68.7954C144.123 66.281 142.826 63.9724 140.822 62.3C138.817 60.6275 136.241 59.7053 133.574 59.7053C130.907 59.7053 128.331 60.6275 126.326 62.3C124.321 63.9724 123.025 66.281 122.678 68.7954V88.7768H144.47V68.7954Z" fill="white"/>
<path d="M18.5102 108.995C18.6275 107.34 19.4017 105.789 20.6761 104.656C21.9506 103.523 23.6301 102.893 25.3748 102.893C27.1194 102.893 28.799 103.523 30.0734 104.656C31.3479 105.789 32.1221 107.34 32.2394 108.995V125.039H18.5102V108.995ZM14.3696 128.887H36.162V108.995C35.815 106.48 34.5183 104.172 32.5135 102.499C30.5088 100.827 27.9328 99.9048 25.2658 99.9048C22.5988 99.9048 20.0229 100.827 18.0181 102.499C16.0133 104.172 14.7166 106.48 14.3696 108.995V128.947V128.887Z" fill="white"/>
<path d="M54.5298 108.995C54.5298 107.26 55.2547 105.596 56.545 104.369C57.8353 103.142 59.5853 102.453 61.41 102.453C63.2347 102.453 64.9847 103.142 66.275 104.369C67.5653 105.596 68.2901 107.26 68.2901 108.995V125.039H54.5298V108.995ZM50.4204 128.947H72.3996V108.995C72.3996 106.224 71.2417 103.566 69.1808 101.606C67.1198 99.6463 64.3246 98.5454 61.41 98.5454C58.4954 98.5454 55.7001 99.6463 53.6392 101.606C51.5782 103.566 50.4204 106.224 50.4204 108.995V128.947Z" fill="white"/>
<path d="M90.5806 108.995C90.5806 107.26 91.3055 105.596 92.5958 104.369C93.886 103.142 95.636 102.453 97.4608 102.453C99.2855 102.453 101.035 103.142 102.326 104.369C103.616 105.596 104.341 107.26 104.341 108.995V125.039H90.5806V108.995ZM86.4712 128.947H108.45V108.995C108.45 106.224 107.293 103.566 105.232 101.606C103.171 99.6463 100.375 98.5454 97.4608 98.5454C94.5461 98.5454 91.7509 99.6463 89.69 101.606C87.629 103.566 86.4712 106.224 86.4712 108.995V128.947Z" fill="white"/>
<path d="M126.631 108.995C126.749 107.34 127.523 105.789 128.797 104.656C130.072 103.523 131.751 102.893 133.496 102.893C135.241 102.893 136.92 103.523 138.195 104.656C139.469 105.789 140.243 107.34 140.361 108.995V125.039H126.631V108.995ZM122.522 128.947H144.314V108.995C143.967 106.48 142.671 104.172 140.666 102.499C138.661 100.827 136.085 99.9048 133.418 99.9048C130.751 99.9048 128.175 100.827 126.17 102.499C124.166 104.172 122.869 106.48 122.522 108.995V128.947Z" fill="white"/>
<path d="M60.2271 175.304H64.3365V152.007H78.1591V175.304H82.2685V152.007H96.091V175.304H100.2V148.099H60.2271V175.304Z" fill="white"/>
<path d="M9.07739 52.0404H149.918V48.1329H9.07739V52.0404Z" fill="white"/>
<path d="M104.932 22.468C104.972 21.1582 105.107 19.8525 105.337 18.5605H53.6582C53.8885 19.8525 54.0237 21.1582 54.0629 22.468H104.932Z" fill="white"/>
<path d="M9.07739 143.215H149.918V139.307H9.07739V143.215Z" fill="white"/>
</svg>
